HIERARCHY
ROOT SpineBase
{
  OFFSET 0.000000 0.000000 0.000000
  CHANNELS 6 Xposition Yposition Zposition Zrotation Xrotation Yrotation
  JOINT SpineMid
  {
    OFFSET -0.000000 31.374366 0.000000
    CHANNELS 3 Zrotation Xrotation Yrotation
    JOINT SpineShoulder
    {
      OFFSET 0.045543 23.273916 -0.114988
      CHANNELS 3 Zrotation Xrotation Yrotation
      JOINT Neck
      {
        OFFSET -0.050793 7.640059 -0.168895
        CHANNELS 3 Zrotation Xrotation Yrotation
        JOINT Head
        {
          OFFSET -6.085128 12.386037 4.417104
          CHANNELS 3 Zrotation Xrotation Yrotation
          End Site
          {
            OFFSET 0 0 0
          }
        }
      }
      JOINT ShoulderLeft
      {
        OFFSET -14.918572 -6.777891 10.503346
        CHANNELS 3 Zrotation Xrotation Yrotation
        JOINT ElbowLeft
        {
          OFFSET -1.444562 -24.304995 -0.195052
          CHANNELS 3 Zrotation Xrotation Yrotation
          JOINT WristLeft
          {
            OFFSET -0.272435 -23.137782 -4.478830
            CHANNELS 3 Zrotation Xrotation Yrotation
            JOINT HandLeft
            {
              OFFSET 1.564990 -8.421666 0.556871
              CHANNELS 3 Zrotation Xrotation Yrotation
              JOINT HandTipLeft
              {
                OFFSET 0.017359 -8.118531 -0.681270
                CHANNELS 3 Zrotation Xrotation Yrotation
                End Site
                {
                  OFFSET 0 0 0
                }
              }
              JOINT ThumbLeft
              {
                OFFSET -1.618505 -0.566448 -1.798929
                CHANNELS 3 Zrotation Xrotation Yrotation
                End Site
                {
                  OFFSET 0 0 0
                }
              }
            }
          }
        }
      }
      JOINT ShoulderRight
      {
        OFFSET 13.170621 -2.861306 -9.103835
        CHANNELS 3 Zrotation Xrotation Yrotation
        JOINT ElbowRight
        {
          OFFSET 7.632288 -23.023236 -5.008920
          CHANNELS 3 Zrotation Xrotation Yrotation
          JOINT WristRight
          {
            OFFSET 2.802445 -23.384775 -6.431431
            CHANNELS 3 Zrotation Xrotation Yrotation
            JOINT HandRight
            {
              OFFSET 0.276019 -6.951321 0.457645
              CHANNELS 3 Zrotation Xrotation Yrotation
              JOINT HandTipRight
              {
                OFFSET -0.895361 -7.361171 -0.424460
                CHANNELS 3 Zrotation Xrotation Yrotation
                End Site
                {
                  OFFSET 0 0 0
                }
              }
              JOINT ThumbRight
              {
                OFFSET 2.382570 -0.251270 -1.703427
                CHANNELS 3 Zrotation Xrotation Yrotation
                End Site
                {
                  OFFSET 0 0 0
                }
              }
            }
          }
        }
      }
    }
  }
  JOINT HipLeft
  {
    OFFSET -6.283816 -0.018950 -0.121410
    CHANNELS 3 Zrotation Xrotation Yrotation
    JOINT KneeLeft
    {
      OFFSET 2.378468 -34.017317 0.041556
      CHANNELS 3 Zrotation Xrotation Yrotation
      JOINT AnkleLeft
      {
        OFFSET 12.599558 -45.164397 5.206762
        CHANNELS 3 Zrotation Xrotation Yrotation
        JOINT FootLeft
        {
          OFFSET 0.680595 1.417894 -14.045114
          CHANNELS 3 Zrotation Xrotation Yrotation
          End Site
          {
            OFFSET 0 0 0
          }
        }
      }
    }
  }
  JOINT HipRight
  {
    OFFSET 6.800517 1.867548 -6.773284
    CHANNELS 3 Zrotation Xrotation Yrotation
    JOINT KneeRight
    {
      OFFSET 4.384497 -33.863525 -14.579142
      CHANNELS 3 Zrotation Xrotation Yrotation
      JOINT AnkleRight
      {
        OFFSET 2.976107 -37.740146 -5.309774
        CHANNELS 3 Zrotation Xrotation Yrotation
        JOINT FootRight
        {
          OFFSET -4.695107 -2.556655 -10.451235
          CHANNELS 3 Zrotation Xrotation Yrotation
          End Site
          {
            OFFSET 0 0 0
          }
        }
      }
    }
  }
}
MOTION
Frames: 13
Frame Time: 0.033333
-25.262671 79.200664 343.938226 0.000000 0.000000 26.948083 -0.000000 0.000000 -26.948083 -0.000000 0.000000 0.000000 -0.000000 0.000000 0.000000 0.000000 0.000000 0.000000 -0.000000 0.000000 0.000000 -0.000000 0.000000 0.000000 -0.000000 0.000000 0.000000 -0.000000 0.000000 0.000000 0.000000 0.000000 0.000000 0.000000 0.000000 0.000000 -0.000000 0.000000 0.000000 -0.000000 0.000000 0.000000 -0.000000 0.000000 0.000000 -0.000000 0.000000 0.000000 0.000000 0.000000 0.000000 0.000000 0.000000 0.000000 -0.000000 0.000000 -26.948083 -0.000000 0.000000 0.000000 -0.000000 0.000000 0.000000 0.000000 0.000000 0.000000 -0.000000 0.000000 -26.948083 -0.000000 0.000000 0.000000 -0.000000 0.000000 0.000000 0.000000 0.000000 0.000000
-25.281999 79.114482 344.260671 0.084294 -0.147364 26.938100 -0.008388 0.169562 -26.937979 -0.000000 0.000000 0.000000 -0.000000 0.000000 0.000000 0.000000 0.000000 0.000000 -0.000000 0.000000 0.000000 -0.000000 0.000000 0.000000 0.552586 2.424638 0.475717 1.618325 -0.730429 -0.618090 0.000000 0.000000 0.000000 0.000000 0.000000 0.000000 -0.000000 0.000000 0.000000 -0.000000 0.000000 0.000000 -0.167046 4.388658 0.170190 -0.943047 -4.031868 -0.218285 0.000000 0.000000 0.000000 0.000000 0.000000 0.000000 -0.008388 0.169562 -26.937979 0.324311 0.920346 0.291578 -0.463298 -1.832462 -1.081359 0.000000 0.000000 0.000000 -0.008388 0.169562 -26.937979 -0.000000 0.000000 0.000000 -0.000000 0.000000 0.000000 0.000000 0.000000 0.000000
-25.274773 79.052644 344.478335 0.166197 -0.206153 26.958048 -0.054682 0.259095 -26.957625 -0.000000 0.000000 0.000000 -0.000000 0.000000 0.000000 0.000000 0.000000 0.000000 -0.000000 0.000000 0.000000 -0.098377 -1.210752 0.032326 0.815251 5.862998 0.834892 3.370312 -1.592598 -1.056571 0.000000 0.000000 0.000000 0.000000 0.000000 0.000000 -0.000000 0.000000 0.000000 -0.000000 0.000000 0.000000 -0.446316 8.401593 0.339295 -1.574750 -7.757192 -0.518743 0.000000 0.000000 0.000000 0.000000 0.000000 0.000000 -0.054682 0.259095 -26.957625 0.668582 2.039573 0.634481 -1.010876 -4.178161 -2.258785 0.000000 0.000000 0.000000 0.738414 -0.340914 -27.401014 -0.980252 0.167674 0.445389 -0.000000 0.000000 0.000000 0.000000 0.000000 0.000000
-25.240992 79.015148 344.591216 0.245779 -0.176437 27.008252 -0.716286 -0.590970 -27.007772 -0.036298 0.166154 -0.010115 0.160198 0.862100 0.008069 0.000000 0.000000 0.000000 1.113376 0.781215 -0.008442 -1.104261 -1.587932 0.050592 0.626785 8.296548 1.175185 5.177275 -2.596515 -1.305823 0.000000 0.000000 0.000000 0.000000 0.000000 0.000000 0.160198 0.862100 0.008069 -0.000000 0.000000 0.000000 -0.839921 11.999940 0.514929 -1.896651 -11.138920 -0.830944 0.000000 0.000000 0.000000 0.000000 0.000000 0.000000 0.689902 0.809158 -26.954783 0.543760 2.526589 0.985343 -1.673909 -7.069160 -3.556478 0.000000 0.000000 0.000000 0.847365 -0.648132 -27.609599 -1.298885 0.355376 0.609344 -0.000000 0.000000 0.000000 0.000000 0.000000 0.000000
-25.180655 79.001995 344.599316 0.323106 -0.058137 27.088760 -0.887550 -0.778333 -27.089606 -0.103358 0.115238 -0.012132 0.215815 1.040048 0.009729 0.000000 0.000000 0.000000 1.379559 0.967863 -0.015714 -1.366545 -1.905349 0.065348 0.031592 10.284429 1.494422 6.961720 -3.747935 -1.373800 0.000000 0.000000 0.000000 0.000000 0.000000 0.000000 0.215815 1.040048 0.009729 -0.000000 0.000000 0.000000 -1.350685 15.162937 0.702957 -1.903325 -14.158915 -1.094846 0.000000 0.000000 0.000000 0.000000 0.000000 0.000000 0.657658 0.741191 -27.031990 0.855974 4.087982 1.451404 -2.494321 -10.541765 -5.008805 0.000000 0.000000 0.000000 0.784730 -1.046579 -27.807897 -1.506231 0.613510 0.735556 -0.000000 0.000000 0.000000 0.000000 0.000000 0.000000
-25.093764 79.013185 344.502633 0.398239 0.148974 27.199329 -1.026269 -0.961504 -27.202542 -0.197871 0.011406 -0.013640 0.272637 1.163952 0.010998 0.000000 0.000000 0.000000 1.593330 1.118304 -0.023197 -1.571278 -2.067911 0.077736 -0.959530 11.771742 1.800844 8.654062 -5.047999 -1.284297 0.000000 0.000000 0.000000 0.000000 0.000000 0.000000 0.272637 1.163952 0.010998 -0.000000 0.000000 0.000000 -1.982280 17.882801 0.907302 -1.584634 -16.811269 -1.261160 0.000000 0.000000 0.000000 0.000000 0.000000 0.000000 0.496264 0.507077 -27.145592 1.233081 6.068819 1.995596 -3.530440 -14.634849 -6.666011 0.000000 0.000000 0.000000 0.550332 -1.536262 -27.998097 -2.122333 1.583188 0.958367 0.508101 -0.648417 -0.119798 0.000000 0.000000 0.000000
-24.805021 79.104064 343.994684 0.710041 0.826214 27.396066 -1.341857 -1.224946 -27.407362 -0.402431 -0.300678 -0.014791 0.319615 1.179571 0.011620 0.000000 0.000000 0.000000 1.785258 1.295816 -0.038729 -1.831140 -2.367239 0.107054 -1.164346 13.478136 2.116046 7.778279 -8.912430 -1.270742 0.000000 0.000000 0.000000 0.000000 0.000000 0.000000 0.035684 1.947363 0.335425 0.279396 -0.769417 -0.314182 -2.536638 21.742392 1.210378 -0.565718 -21.289104 -1.226891 0.000000 0.000000 0.000000 0.000000 0.000000 0.000000 -1.010600 -0.406764 -27.404773 2.525147 10.249483 2.943307 -5.594002 -21.049578 -9.906086 0.000000 0.000000 0.000000 -0.715403 -2.638205 -28.195230 -1.919685 2.620967 0.989339 0.590671 -0.804162 -0.142457 0.000000 0.000000 0.000000
-24.709326 79.126998 343.751116 0.696689 1.113411 27.303422 -1.129860 -0.669680 -27.316795 -0.396346 -1.210626 -0.020994 0.030728 0.332668 -0.284772 0.000000 0.000000 0.000000 1.923345 1.429770 -0.047871 -2.112392 -2.361738 0.148347 -1.711753 13.756106 2.205541 7.299625 -11.150836 -1.212959 0.000000 0.000000 0.000000 0.000000 0.000000 0.000000 0.077559 2.234166 0.430266 0.168134 0.026271 -0.239712 -3.810879 21.675704 1.225790 0.680498 -21.922293 -1.018556 0.000000 0.000000 0.000000 0.000000 0.000000 0.000000 -1.129860 -0.669680 -27.316795 3.151527 13.814487 3.877079 -8.076741 -27.145356 -13.648276 0.000000 0.000000 0.000000 -0.981054 -3.123726 -28.132509 -1.922889 2.937904 1.026557 0.618371 -0.855181 -0.149919 0.000000 0.000000 0.000000
-24.532120 79.220772 343.371211 0.768716 1.567940 27.627692 -1.408353 -1.032459 -27.650902 -0.438767 -1.181594 -0.022075 -0.264055 0.022722 -0.300402 0.000000 0.000000 0.000000 1.947932 1.421156 -0.047626 -2.120163 -2.033453 0.151005 -4.496999 13.737870 2.471401 10.295569 -11.835343 -0.724280 0.000000 0.000000 0.000000 0.000000 0.000000 0.000000 0.063922 2.478775 0.535660 -0.132589 0.179137 -0.195824 -4.371475 21.515235 1.172174 1.924189 -22.596954 -0.649169 0.000000 0.000000 0.000000 0.000000 0.000000 0.000000 -1.408353 -1.032459 -27.650902 3.605398 17.057201 4.706275 -10.944412 -34.947460 -15.827962 0.000000 0.000000 0.000000 -1.801526 -3.863821 -28.439171 -1.663550 3.494973 0.986747 0.645459 -0.829209 -0.151619 0.000000 0.000000 0.000000
-24.355395 79.327222 342.979517 0.809612 1.981303 28.041892 -1.646404 -1.367714 -28.075545 -0.442708 -1.088087 -0.021221 -0.507856 -0.394907 -0.374355 0.000000 0.000000 0.000000 1.828699 1.285329 -0.038756 -1.972290 -1.396396 0.140237 -8.202177 13.322114 2.720403 14.244882 -11.790485 -0.076351 0.000000 0.000000 0.000000 0.000000 0.000000 0.000000 -0.007902 2.675051 0.650456 -0.427881 0.302841 -0.160026 -4.673403 21.260792 1.074044 2.290877 -22.782764 -0.582518 0.000000 0.000000 0.000000 0.000000 0.000000 0.000000 -1.646404 -1.367714 -28.075545 3.789255 19.287349 5.275867 -13.104589 -39.280232 -18.184673 0.000000 0.000000 0.000000 -2.613841 -4.488482 -28.814196 -1.348272 3.872255 0.899742 0.679876 -0.682482 -0.145479 0.000000 0.000000 0.000000
-24.172724 79.460482 342.589481 0.870978 2.365283 28.467313 -1.893759 -1.663556 -28.512791 -0.375957 -0.919280 -0.017436 -0.787934 -0.974371 -0.509983 0.000000 0.000000 0.000000 1.594552 1.047364 -0.026910 -1.218612 -0.128325 0.016032 -12.492989 11.659324 2.697989 18.487807 -11.760875 0.642668 0.000000 0.000000 0.000000 0.000000 0.000000 0.000000 -0.139854 2.763361 0.749900 -0.691363 0.368631 -0.134469 -4.962108 19.920052 0.880077 3.610676 -20.319039 -0.300547 0.000000 0.000000 0.000000 0.000000 0.000000 0.000000 -2.254074 -2.624597 -28.597154 3.637396 20.853645 5.424579 -13.688438 -40.541368 -18.756230 0.000000 0.000000 0.000000 -3.484502 -5.042332 -29.191450 -1.009731 4.210825 0.789623 0.742773 -0.496449 -0.140449 0.000000 0.000000 0.000000
-23.903696 79.569658 342.134569 1.040309 2.830460 28.752400 -1.299282 -1.790275 -28.782803 -0.762912 -0.635937 -0.006759 -1.314935 -2.246831 -0.669266 0.000000 0.000000 0.000000 0.994971 0.035312 -0.010396 -0.994964 -0.035487 0.009781 -15.868148 12.089799 2.987845 22.956266 -11.296003 1.325084 0.000000 0.000000 0.000000 0.000000 0.000000 0.000000 -0.561861 2.042222 0.807497 -1.032739 0.491257 -0.070044 -5.558369 20.510794 0.890334 5.716872 -19.967490 0.156002 0.000000 0.000000 0.000000 0.000000 0.000000 0.000000 -3.040993 -3.201491 -28.952791 3.350163 19.493687 5.001820 -11.533828 -37.436385 -16.694651 0.000000 0.000000 0.000000 -4.496873 -5.409714 -29.372003 0.256362 4.075893 0.402178 -0.000000 0.000000 0.000000 0.000000 0.000000 0.000000
-23.700254 79.659558 341.736782 1.145461 3.201311 28.915288 -1.274219 -1.846029 -28.949054 -0.923205 -0.969330 -0.010474 -1.378195 -2.476270 -0.765439 0.000000 0.000000 0.000000 -0.000000 0.000000 0.000000 -0.620054 1.170533 0.112348 -17.036152 11.548596 2.811819 26.352399 -12.608692 1.963266 0.000000 0.000000 0.000000 0.000000 0.000000 0.000000 -0.580465 2.163644 0.852503 -1.374894 0.748866 0.028264 -7.329985 21.776749 1.105005 8.397631 -17.760805 0.495205 0.000000 0.000000 0.000000 0.000000 0.000000 0.000000 -3.682845 -3.728052 -29.185505 3.215116 19.856322 5.021482 -11.085266 -37.262144 -16.502256 0.000000 0.000000 0.000000 -5.180140 -5.539029 -29.419764 0.674973 4.153954 0.219402 -0.000000 0.000000 0.000000 0.000000 0.000000 0.000000
